<svg width="45" height="45" viewBox="0 0 45 45" fill="none" xmlns="http://www.w3.org/2000/svg">
<path d="M11.25 0C9.70312 0 8.4375 1.26562 8.4375 2.8125V42.1875C8.4375 43.7344 9.70312 45 11.25 45H39.375C40.9219 45 42.1875 43.7344 42.1875 42.1875V11.25L30.9375 0H11.25Z" fill="#E2E5E7"/>
<path d="M33.75 11.25H42.1875L30.9375 0V8.4375C30.9375 9.98438 32.2031 11.25 33.75 11.25Z" fill="#B0B7BD"/>
<path d="M42.1875 19.6875L33.75 11.25H42.1875V19.6875Z" fill="#CAD1D8"/>
<path d="M36.5625 36.5625C36.5625 37.3359 35.9297 37.9688 35.1562 37.9688H4.21875C3.44531 37.9688 2.8125 37.3359 2.8125 36.5625V22.5C2.8125 21.7266 3.44531 21.0938 4.21875 21.0938H35.1562C35.9297 21.0938 36.5625 21.7266 36.5625 22.5V36.5625Z" fill="#ED4242"/>
<path d="M8.94287 26.6444C8.94287 26.2732 9.23537 25.8682 9.70646 25.8682H12.3038C13.7663 25.8682 15.0826 26.8469 15.0826 28.7228C15.0826 30.5003 13.7663 31.4903 12.3038 31.4903H10.4265V32.9753C10.4265 33.4703 10.1115 33.7502 9.70646 33.7502C9.33521 33.7502 8.94287 33.4703 8.94287 32.9753V26.6444ZM10.4265 27.2843V30.0855H12.3038C13.0576 30.0855 13.6538 29.4203 13.6538 28.7228C13.6538 27.9368 13.0576 27.2843 12.3038 27.2843H10.4265Z" fill="white"/>
<path d="M17.285 33.75C16.9138 33.75 16.5088 33.5475 16.5088 33.0539V26.6667C16.5088 26.2631 16.9138 25.9692 17.285 25.9692H19.8599C24.9983 25.9692 24.8858 33.75 19.9611 33.75H17.285ZM17.9938 27.3417V32.3789H19.8599C22.896 32.3789 23.031 27.3417 19.8599 27.3417H17.9938Z" fill="white"/>
<path d="M26.7078 27.4322V29.2195H29.5751C29.9801 29.2195 30.3851 29.6245 30.3851 30.0169C30.3851 30.3881 29.9801 30.6919 29.5751 30.6919H26.7078V33.0529C26.7078 33.4467 26.4279 33.749 26.0342 33.749C25.5392 33.749 25.2368 33.4467 25.2368 33.0529V26.6658C25.2368 26.2622 25.5406 25.9683 26.0342 25.9683H29.9815C30.4765 25.9683 30.769 26.2622 30.769 26.6658C30.769 27.0258 30.4765 27.4308 29.9815 27.4308H26.7078V27.4322Z" fill="white"/>
<path d="M35.1562 37.9688H8.4375V39.375H35.1562C35.9297 39.375 36.5625 38.7422 36.5625 37.9688V36.5625C36.5625 37.3359 35.9297 37.9688 35.1562 37.9688Z" fill="#CAD1D8"/>
</svg>
